HIERARCHY
ROOT Hips
{
  OFFSET 95.7656 80.011 -116.673
  CHANNELS 6 Xposition Yposition Zposition Zrotation Xrotation Yrotation
  JOINT Spine
  {
    OFFSET 0 14.2686 0
    CHANNELS 3 Zrotation Xrotation Yrotation
    JOINT Spine1
    {
      OFFSET 0 30.7889 0.153192
      CHANNELS 3 Zrotation Xrotation Yrotation
      JOINT HEad
      {
        OFFSET 0 10.481 0.013608
        CHANNELS 3 Zrotation Xrotation Yrotation
        End Site
        {
          OFFSET -0.348 15.329 3.01674
        }
      }
      JOINT LeftShoulder1
      {
        OFFSET 10.788 -0.4347 -0.264
        CHANNELS 3 Zrotation Xrotation Yrotation
        JOINT LeftArm
        {
          OFFSET 12.3392 -0.004056 0.386544
          CHANNELS 3 Zrotation Xrotation Yrotation
          JOINT LeftForeArm
          {
            OFFSET 39.3203 0.118968 -1.70921
            CHANNELS 3 Zrotation Xrotation Yrotation
            JOINT LeftHand
            {
              OFFSET 33.0772 0.102432 1.22659
              CHANNELS 3 Zrotation Xrotation Yrotation
              End Site
              {
                OFFSET 20.0932 -0.72 1.80349
              }
            }
          }
        }
      }
      JOINT RightShoulder
      {
        OFFSET -10.788 -0.4347 -0.264
        CHANNELS 3 Zrotation Xrotation Yrotation
        JOINT RightArm
        {
          OFFSET -12.3392 -0.004056 0.386544
          CHANNELS 3 Zrotation Xrotation Yrotation
          JOINT RightForeArm
          {
            OFFSET -39.4765 0.118968 -1.70921
            CHANNELS 3 Zrotation Xrotation Yrotation
            JOINT RightHand
            {
              OFFSET -32.9905 0.102432 1.22659
              CHANNELS 3 Zrotation Xrotation Yrotation
              End Site
              {
                OFFSET -19.9574 -0.72 1.80349
              }
            }
          }
        }
      }
    }
  }
  JOINT LeftUpLeg
  {
    OFFSET 10.735 -10.4005 0.12198
    CHANNELS 3 Zrotation Xrotation Yrotation
    JOINT LeftLeg
    {
      OFFSET 0 -53.3072 1.64724
      CHANNELS 3 Zrotation Xrotation Yrotation
      JOINT LeftFoot
      {
        OFFSET -0.30426 -50.5109 -1.75271
        CHANNELS 3 Zrotation Xrotation Yrotation
        JOINT LeftToes
        {
          OFFSET -0.048 -5.29811 10.1989
          CHANNELS 3 Zrotation Xrotation Yrotation
          End Site
          {
            OFFSET 0.096 -0.05694 11.7357
          }
        }
      }
    }
  }
  JOINT RightUpLeg
  {
    OFFSET -10.735 -10.4005 0.12198
    CHANNELS 3 Zrotation Xrotation Yrotation
    JOINT RightLeg
    {
      OFFSET 0 -53.3072 1.64724
      CHANNELS 3 Zrotation Xrotation Yrotation
      JOINT RightFoot
      {
        OFFSET 0.30426 -50.5109 -1.75271
        CHANNELS 3 Zrotation Xrotation Yrotation
        JOINT RightToes
        {
          OFFSET 0.048 -5.29811 10.1989
          CHANNELS 3 Zrotation Xrotation Yrotation
          End Site
          {
            OFFSET -0.096 -0.16494 11.7357
          }
        }
      }
    }
  }
}
MOTION
Frames:	13
Frame Time:	0.0166667
46.2186 76.5487 -129.479 0.44007 -12.0094 -22.428 -24.5551 59.9648 25.1605 -5.41625 -1.39477 -2.79579 -4.92048 -4.11608 33.9792 -2.99449 13.8784 1.71627 -90.8313 -31.3368 -68.0696 -42.711 49.32 -97.578 13.3132 0.384751 6.28436 179.976 82.8148 -157.851 105.675 -9.54208 -175.917 37.1897 64.4292 97.7783 -5.02429 1.56068 -37.3964 10.942 -43.9976 21.1587 74.2751 47.6551 -60.8962 -18.3128 -41.3874 -6.51971 -15.4727 26.3031 1.78536 -19.6686 -43.5391 -8.34282 -105.691 71.2644 103.354 48.6632 -14.7128 29.0388 -25.6967 -15.5191 1.55551 
46.4509 73.5511 -130.338 0.951952 -12.6606 -22.8454 -32.9645 63.0736 28.8824 -5.85552 -0.053604 -4.71896 -4.09439 -7.89588 33.1781 -0.385569 9.91955 3.6539 -86.862 -33.4684 -64.7927 -56.243 50.5163 -94.3309 19.6667 19.6036 4.57437 -176.295 87.4509 -161.042 106.06 -16.958 173.44 36.3968 56.8012 97.4065 -5.74678 -1.34731 -18.8921 11.7548 -45.4831 22.4264 75.6865 48.8404 -61.4474 -14.9515 -40.3443 -5.42065 -21.1762 10.0183 6.90203 -20.3075 -46.128 -7.37532 -116.49 71.437 114.152 52.261 -14.8677 28.9296 -30.2628 -17.2152 1.57636 
46.6466 70.8551 -131.314 1.61147 -11.7923 -22.467 -40.4293 64.8611 33.611 -5.74099 1.08052 -5.32294 -3.52849 -11.6774 32.4468 3.77981 6.52239 5.61643 -83.9834 -33.6248 -60.9856 -63.1326 50.8598 -93.4946 15.2174 13.6602 7.09353 7.31877 87.0055 17.3564 105.262 -21.0976 166.461 36.2147 53.1789 99.1833 -4.97274 3.77999 -19.7737 12.9381 -48.5807 23.6279 77.6035 50.1367 -61.9131 -11.6558 -40.1142 -3.85699 -23.8951 16.4033 4.72918 -21.4699 -49.9041 -7.19914 -129.07 71.4474 127.035 56.138 -15.4157 28.6772 -35.2798 -19.4074 1.9032 
46.823 67.7658 -132.428 2.28201 -9.69672 -20.5348 -45.562 66.3035 35.9437 -5.69279 2.62319 -5.70059 -3.25737 -14.8661 31.7746 8.6913 3.2852 7.18593 -81.5547 -32.3889 -57.6537 -66.921 52.2451 -94.9894 18.0205 23.2525 5.83297 11.0384 81.3774 16.6923 104.475 -23.918 162.346 35.444 52.1457 101.497 -5.38727 1.11376 -11.2378 13.0129 -53.3212 22.6465 79.3814 50.5074 -63.1373 -8.38297 -39.7119 -2.27579 -29.4613 13.1102 5.58159 -24.4835 -55.0175 -7.94655 -144.14 70.7379 144.291 60.0113 -15.2476 27.99 -40.4593 -21.4053 1.86245 
46.867 64.8195 -133.533 2.75006 -7.88883 -18.8325 -52.3086 67.0443 40.7245 -4.74145 3.46439 -5.8307 -1.90885 -18.6001 30.9725 13.9257 0.618983 8.3286 -80.6275 -30.4843 -53.9083 -68.1716 52.7577 -97.186 15.1667 18.7171 7.06663 14.6933 76.2832 15.9999 103.718 -25.7964 159.697 34.0777 52.3836 103.562 -5.56133 4.35888 -13.4365 13.0936 -58.1069 21.5976 82.1322 50.4626 -65.7818 -5.63207 -39.2891 -0.706422 -33.1684 14.0737 4.75088 -28.0252 -59.7848 -6.67979 -162.229 69.5078 165.739 63.9533 -14.662 26.8178 -45.2347 -23.1188 1.63749 
46.7963 61.9818 -134.528 2.85009 -6.12568 -17.2217 -57.3845 66.8251 44.6007 -2.45086 3.87644 -5.76297 -0.813421 -21.8554 30.3961 18.8973 -0.563425 8.83584 -80.6712 -27.9078 -50.0476 -68.5164 53.9258 -100.402 16.0137 23.6482 6.53138 16.8834 72.6663 15.6736 103.295 -26.9491 157.905 32.615 53.4211 105.626 -5.72951 2.62424 -9.95675 13.5812 -63.151 20.6245 85.3434 50.3773 -69.5029 -3.02472 -38.4395 0.814363 -36.8213 13.1375 5.23079 -31.5912 -63.7852 -3.4739 178.712 67.2141 -171.169 68.0874 -13.9496 25.6977 -49.7179 -25.1144 1.37952 
46.6418 58.9536 -135.355 3.04091 -4.61393 -15.5278 -60.8185 66.7343 47.2941 -1.18358 3.96594 -5.60198 0.250179 -24.6006 29.7726 22.6368 -1.65948 8.98855 -80.5203 -24.9171 -46.9359 -67.9342 54.12 -103.668 14.0742 20.374 7.54131 17.5634 70.799 15.1287 100.979 -25.2918 157.002 31.7843 56.2458 106.399 -4.90483 3.85446 -10.8101 16.8666 -68.683 21.943 89.32 52.9254 -75.1908 1.21003 -37.2556 2.44262 -40.2734 11.9075 4.6501 -35.3041 -66.9066 1.54596 162.112 63.0216 -150.05 72.527 -13.1594 24.8779 -54.4592 -27.4986 -0.21628 
46.4138 56.061 -136.014 3.50859 -3.92589 -13.7326 -62.6628 67.0076 48.9001 -1.17512 4.5919 -5.2597 1.09837 -26.4307 29.0489 25.3809 -2.60986 8.91239 -80.0139 -22.1725 -44.9201 -66.873 53.9477 -106.921 13.5848 23.1337 8.06606 17.2906 70.4601 14.3106 96.9389 -21.6616 157.265 29.1523 56.0951 106.324 -3.99997 5.25346 -11.7349 24.1266 -73.9165 26.9159 95.0091 57.1552 -83.4553 6.75007 -35.4781 3.89884 -43.4577 9.71227 4.00331 -39.3084 -69.0953 5.73233 153.835 57.9868 -136.828 77.1714 -12.078 23.8456 -59.3521 -30.5339 -1.83175 
46.2234 53.2212 -136.425 4.05331 -3.05313 -11.6184 -63.5783 67.3105 49.3718 -2.06007 3.33638 -4.91178 0.614655 -27.5142 27.7796 27.0518 -3.16277 8.22107 -79.0562 -19.8642 -43.1497 -61.5934 49.5837 -113.216 7.11621 18.2496 9.1591 9.42176 67.2901 25.68 99.5369 -25.4376 156.007 27.2882 55.2002 107.913 -3.01073 6.77962 -12.7285 34.4725 -78.6787 34.5565 103.164 61.5723 -94.0924 13.0652 -34.1874 5.38771 -46.595 7.60015 2.91587 -43.2152 -70.9918 8.41615 151.653 54.1494 -129.631 81.9833 -10.6638 22.611 -64.6578 -34.0261 -4.19354 
46.295 50.3674 -136.506 4.81039 -3.45786 -8.86999 -63.212 66.6724 48.9243 -1.26082 3.59743 -4.59539 -1.49693 -29.1832 26.2116 28.1073 -4.34415 8.24614 -78.471 -16.7972 -41.5373 -58.7436 46.1131 -117.271 4.07163 18.3735 10.3306 9.4899 67.1443 24.329 98.0951 -23.5529 155.265 26.067 55.5361 109.595 -1.93507 8.3913 -13.7882 49.8648 -82.1127 47.3876 114.767 65.6039 -108.994 19.974 -33.0785 6.48812 -49.8422 5.43298 1.65698 -46.5023 -71.7054 9.88958 153.436 50.6187 -125.57 86.6171 -8.61375 20.6455 -97.9398 -35.0023 -34.8735 
46.5178 47.7086 -136.351 5.30645 -4.05753 -6.68802 -62.6701 66.7751 48.1552 -1.56177 3.81507 -4.13742 -3.70248 -30.2556 24.6885 28.783 -4.84559 7.88655 -77.4127 -13.9972 -40.3174 -56.5699 44.4152 -119.947 1.35655 16.3448 12.405 9.04883 67.1707 23.6341 97.9396 -22.2403 154.427 25.3605 56.2768 110.649 -0.773615 10.047 -14.9109 71.8229 -84.289 66.383 127.783 67.5656 -124.972 25.6109 -32.0445 8.18514 -52.8708 4.39278 1.08487 -49.8366 -71.7088 10.8675 156.079 48.1551 -124.167 92.5821 -7.44779 19.3346 -88.3417 -40.0396 -24.548 
46.8752 45.1965 -136.027 6.05443 -5.00997 -4.58457 -61.5375 66.7632 47.09 -2.10853 3.31205 -3.66136 -6.0927 -32.4644 23.0611 28.8902 -5.57224 7.23325 -76.4645 -11.7453 -39.9503 -54.9328 42.5593 -121.598 0.68119 17.1252 14.9474 9.05641 67.943 23.2756 98.9333 -20.7559 153.077 24.9478 57.0101 111.653 0.469741 11.7056 -16.0927 96.8853 -84.8073 89.2949 139.986 68.9004 -139.816 30.6518 -31.2688 10.1488 -55.4783 3.78731 0.960346 -52.1402 -70.8536 11.4068 159.201 46.3534 -123.647 98.3304 -6.28523 18.925 -98.0783 -42.6385 -33.5459 
47.5217 42.9526 -135.491 6.60222 -5.50826 -2.5193 -60.6581 65.3634 46.9999 -3.67715 1.6861 -3.16783 -7.563 -32.9608 20.7052 20.884 -15.4062 8.5071 -64.3461 -4.04262 -37.1089 -56.3389 40.2405 -117.892 0.608598 16.8476 16.677 3.52659 61.5907 30.8733 105.261 -20.6202 149.934 24.6908 61.2192 113.711 1.78733 13.3266 -17.3281 118.93 -84.2518 108.573 156.511 69.5437 -158.177 36.7784 -30.8276 12.297 -58.3729 2.73494 -0.449809 -52.9085 -68.8501 12.5726 161.995 45.9051 -124.206 104.093 -5.43139 19.2243 -98.4304 -46.5514 -32.1852 
